<svg width="169" height="52" viewBox="0 0 169 52" fill="none" xmlns="http://www.w3.org/2000/svg">
<g filter="url(#filter0_d)">
<path d="M5 45.1114C5.16973 32.3817 7.29372 18.2694 13.3281 6.83585C15.1889 3.31012 15.2168 4.65918 17.2168 12.6592C19.4635 21.6458 22.5649 30.4674 26.367 38.8864C27.2783 40.9042 29.4474 45.6001 31.4985 46.6256" stroke="#2B2D42" stroke-width="3" stroke-linecap="round" stroke-linejoin="round"/>
<path d="M7.2168 27.1592C11.8835 26.8258 16.5501 26.4925 21.2168 26.1592" stroke="#2B2D42" stroke-width="3" stroke-linecap="round" stroke-linejoin="round"/>
</g>
<g filter="url(#filter1_d)">
<path d="M41.9326 41.1238C42.6539 32.7215 43.3753 24.3192 44.0966 15.9169C44.193 14.794 47.7122 21.1514 48.2168 22.1592C50.9707 27.6592 50.2168 25.6592 54.8343 32.4401C56.5975 34.5636 58.8942 37.0371 60.6582 39.1324C61.4915 40.1222 61.3863 36.7675 61.4196 36.3186C61.8375 30.6932 61.6679 25.0425 62.1535 19.3865C62.3659 16.9121 62.5783 14.4378 62.7907 11.9634" stroke="#2B2D42" stroke-width="3" stroke-linecap="round" stroke-linejoin="round"/>
</g>
<g filter="url(#filter2_d)">
<path d="M82.2169 40.8839C82.9382 32.4816 82.495 22.0616 83.2164 13.6593C83.3128 12.5364 88.3285 20.8865 89.7168 23.6592C90.7182 25.6592 91.2168 26.1592 93.2168 29.1592C94.98 31.2827 99.1785 36.7972 100.943 38.8925C101.776 39.8823 101.671 36.5276 101.704 36.0787C102.122 30.4533 100.942 21.6592 100.943 20.1593C100.942 17.1592 100.73 15.6337 100.942 13.1593" stroke="#2B2D42" stroke-width="3" stroke-linecap="round" stroke-linejoin="round"/>
</g>
<g filter="url(#filter3_d)">
<path d="M123 13C123 21.6667 123 30.3333 123 39" stroke="#2B2D42" stroke-width="3" stroke-linecap="round" stroke-linejoin="round"/>
</g>
<g filter="url(#filter4_d)">
<path d="M141.16 12C141.16 18.7335 141.16 25.4671 141.16 32.2006C141.16 33.5933 140.524 38.9397 141.79 39.8473C142.214 40.1512 143.158 39.9076 143.61 39.9076C146.791 39.9076 149.953 39.57 153.13 39.4259C155.935 39.2986 158.747 39.3657 161.553 39.3657C161.966 39.3657 162.8 39.6104 163 39.0947" stroke="#2B2D42" stroke-width="3" stroke-linecap="round" stroke-linejoin="round"/>
<path d="M142 24.005C146.789 24.005 151.586 23.9371 156.358 24.2998C158.135 24.4348 163.422 25 161.637 25" stroke="#2B2D42" stroke-width="3" stroke-linecap="round" stroke-linejoin="round"/>
<path d="M162 13C155.128 13 134.511 13 141.383 13" stroke="#2B2D42" stroke-width="3" stroke-linecap="round" stroke-linejoin="round"/>
</g>
<defs>
<filter id="filter0_d" x="0.5" y="0.997559" width="35.4988" height="50.6284" filterUnits="userSpaceOnUse" color-interpolation-filters="sRGB">
<feFlood flood-opacity="0" result="BackgroundImageFix"/>
<feColorMatrix in="SourceAlpha" type="matrix" values="0 0 0 0 0 0 0 0 0 0 0 0 0 0 0 0 0 0 127 0"/>
<feOffset dy="0.5"/>
<feGaussianBlur stdDeviation="1.5"/>
<feColorMatrix type="matrix" values="0 0 0 0 0 0 0 0 0 0 0 0 0 0 0 0 0 0 0.25 0"/>
<feBlend mode="normal" in2="BackgroundImageFix" result="effect1_dropShadow"/>
<feBlend mode="normal" in="SourceGraphic" in2="effect1_dropShadow" result="shape"/>
</filter>
<filter id="filter1_d" x="36.3096" y="5.27637" width="32.9057" height="43.6033" filterUnits="userSpaceOnUse" color-interpolation-filters="sRGB">
<feFlood flood-opacity="0" result="BackgroundImageFix"/>
<feColorMatrix in="SourceAlpha" type="matrix" values="0 0 0 0 0 0 0 0 0 0 0 0 0 0 0 0 0 0 127 0"/>
<feOffset dy="0.5"/>
<feGaussianBlur stdDeviation="2"/>
<feColorMatrix type="matrix" values="0 0 0 0 0 0 0 0 0 0 0 0 0 0 0 0 0 0 0.25 0"/>
<feBlend mode="normal" in2="BackgroundImageFix" result="effect1_dropShadow"/>
<feBlend mode="normal" in="SourceGraphic" in2="effect1_dropShadow" result="shape"/>
</filter>
<filter id="filter2_d" x="75.2666" y="6.52954" width="34.0957" height="42.1102" filterUnits="userSpaceOnUse" color-interpolation-filters="sRGB">
<feFlood flood-opacity="0" result="BackgroundImageFix"/>
<feColorMatrix in="SourceAlpha" type="matrix" values="0 0 0 0 0 0 0 0 0 0 0 0 0 0 0 0 0 0 127 0"/>
<feOffset dy="0.5"/>
<feGaussianBlur stdDeviation="2"/>
<feColorMatrix type="matrix" values="0 0 0 0 0 0 0 0 0 0 0 0 0 0 0 0 0 0 0.25 0"/>
<feBlend mode="normal" in2="BackgroundImageFix" result="effect1_dropShadow"/>
<feBlend mode="normal" in="SourceGraphic" in2="effect1_dropShadow" result="shape"/>
</filter>
<filter id="filter3_d" x="117.5" y="8" width="11" height="37" filterUnits="userSpaceOnUse" color-interpolation-filters="sRGB">
<feFlood flood-opacity="0" result="BackgroundImageFix"/>
<feColorMatrix in="SourceAlpha" type="matrix" values="0 0 0 0 0 0 0 0 0 0 0 0 0 0 0 0 0 0 127 0"/>
<feOffset dy="0.5"/>
<feGaussianBlur stdDeviation="2"/>
<feColorMatrix type="matrix" values="0 0 0 0 0 0 0 0 0 0 0 0 0 0 0 0 0 0 0.25 0"/>
<feBlend mode="normal" in2="BackgroundImageFix" result="effect1_dropShadow"/>
<feBlend mode="normal" in="SourceGraphic" in2="effect1_dropShadow" result="shape"/>
</filter>
<filter id="filter4_d" x="135.5" y="7" width="33.0004" height="39" filterUnits="userSpaceOnUse" color-interpolation-filters="sRGB">
<feFlood flood-opacity="0" result="BackgroundImageFix"/>
<feColorMatrix in="SourceAlpha" type="matrix" values="0 0 0 0 0 0 0 0 0 0 0 0 0 0 0 0 0 0 127 0"/>
<feOffset dy="0.5"/>
<feGaussianBlur stdDeviation="2"/>
<feColorMatrix type="matrix" values="0 0 0 0 0 0 0 0 0 0 0 0 0 0 0 0 0 0 0.25 0"/>
<feBlend mode="normal" in2="BackgroundImageFix" result="effect1_dropShadow"/>
<feBlend mode="normal" in="SourceGraphic" in2="effect1_dropShadow" result="shape"/>
</filter>
</defs>
</svg>
